<svg width="160" height="40" viewBox="0 0 160 40" xmlns="http://www.w3.org/2000/svg">
  <defs>
    <linearGradient id="battleshipGradient" x1="0%" y1="0%" x2="100%" y2="0%">
      <stop offset="0%" stop-color="#4a5568" />
      <stop offset="50%" stop-color="#2d3748" />
      <stop offset="100%" stop-color="#4a5568" />
    </linearGradient>
    <radialGradient id="turretGradient" cx="50%" cy="50%" r="50%">
      <stop offset="0%" stop-color="#718096" />
      <stop offset="100%" stop-color="#2d3748" />
    </radialGradient>
  </defs>
  
  <!-- Casco principal -->
  <rect x="15" y="18" width="130" height="16" rx="3" fill="url(#battleshipGradient)" stroke="#1a202c" stroke-width="1"/>
  
  <!-- Torre de comando -->
  <rect x="100" y="10" width="20" height="15" rx="2" fill="#2d3748" stroke="#1a202c" stroke-width="1"/>
  
  <!-- Torres de canhão -->
  <circle cx="40" cy="20" r="8" fill="url(#turretGradient)" stroke="#1a202c" stroke-width="1"/>
  <circle cx="65" cy="20" r="8" fill="url(#turretGradient)" stroke="#1a202c" stroke-width="1"/>
  <circle cx="90" cy="20" r="8" fill="url(#turretGradient)" stroke="#1a202c" stroke-width="1"/>
  
  <!-- Canhões -->
  <rect x="35" y="12" width="3" height="16" rx="1" fill="#4a5568"/>
  <rect x="60" y="12" width="3" height="16" rx="1" fill="#4a5568"/>
  <rect x="85" y="12" width="3" height="16" rx="1" fill="#4a5568"/>
  
  <!-- Detalhes do casco -->
  <line x1="25" y1="22" x2="135" y2="22" stroke="#a0aec0" stroke-width="1"/>
  <line x1="25" y1="26" x2="135" y2="26" stroke="#a0aec0" stroke-width="1"/>
  
  <!-- Escotilhas -->
  <rect x="110" y="20" width="4" height="2" rx="1" fill="#4a5568"/>
  <rect x="120" y="20" width="4" height="2" rx="1" fill="#4a5568"/>
  
  <!-- Janelas da torre -->
  <circle cx="105" cy="15" r="1" fill="#63b3ed"/>
  <circle cx="110" cy="15" r="1" fill="#63b3ed"/>
  <circle cx="115" cy="15" r="1" fill="#63b3ed"/>
  
  <!-- Proa -->
  <path d="M15 18 L5 26 L15 34 Z" fill="#2d3748" stroke="#1a202c" stroke-width="1"/>
  
  <!-- Popa -->
  <rect x="145" y="18" width="5" height="16" fill="#2d3748"/>
</svg>