<svg width="120" height="40" viewBox="0 0 120 40" xmlns="http://www.w3.org/2000/svg">
  <defs>
    <linearGradient id="cruiserGradient" x1="0%" y1="0%" x2="100%" y2="0%">
      <stop offset="0%" stop-color="#4a5568" />
      <stop offset="50%" stop-color="#2d3748" />
      <stop offset="100%" stop-color="#4a5568" />
    </linearGradient>
  </defs>
  
  <!-- Casco principal -->
  <rect x="10" y="20" width="100" height="15" rx="2" fill="url(#cruiserGradient)" stroke="#1a202c" stroke-width="1"/>
  
  <!-- Superestrutura -->
  <rect x="30" y="12" width="60" height="8" rx="1" fill="#2d3748" stroke="#1a202c" stroke-width="1"/>
  
  <!-- Torre de comando -->
  <rect x="70" y="8" width="15" height="12" rx="1" fill="#4a5568" stroke="#1a202c" stroke-width="1"/>
  
  <!-- Lança-mísseis -->
  <rect x="35" y="10" width="8" height="6" fill="#718096"/>
  <rect x="48" y="10" width="8" height="6" fill="#718096"/>
  <rect x="61" y="10" width="8" height="6" fill="#718096"/>
  
  <!-- Antena radar -->
  <line x1="77" y1="8" x2="77" y2="2" stroke="#e2e8f0" stroke-width="1.5"/>
  <circle cx="77" cy="0" r="2" fill="#63b3ed"/>
  
  <!-- Janelas -->
  <circle cx="73" cy="13" r="1" fill="#63b3ed"/>
  <circle cx="76" cy="13" r="1" fill="#63b3ed"/>
  <circle cx="79" cy="13" r="1" fill="#63b3ed"/>
  
  <!-- Detalhes do casco -->
  <line x1="20" y1="25" x2="90" y2="25" stroke="#a0aec0" stroke-width="0.8"/>
  <line x1="20" y1="28" x2="90" y2="28" stroke="#a0aec0" stroke-width="0.8"/>
  
  <!-- Escotilhas -->
  <rect x="45" y="22" width="4" height="2" rx="1" fill="#4a5568"/>
  <rect x="55" y="22" width="4" height="2" rx="1" fill="#4a5568"/>
  
  <!-- Proa -->
  <path d="M10 20 L0 27.5 L10 35 Z" fill="#2d3748" stroke="#1a202c" stroke-width="1"/>
  
  <!-- Popa -->
  <rect x="110" y="20" width="3" height="15" fill="#2d3748"/>
</svg>